<svg viewBox="0 0 1024 1024" version="1.1" xmlns="http://www.w3.org/2000/svg">
  <!-- ZC GUI 窗口版-原版斜率：30×42长方格，斜杠6块宽每行左移1格，视觉斜率30/42≈0.71（原版0.706），左右严格平行直线 -->
  <defs><linearGradient id="bg" x1="0" y1="0" x2="1" y2="1"><stop offset="0" stop-color="#1E293B"/><stop offset="1" stop-color="#312E81"/></linearGradient></defs><path fill="url(#bg)" d="M836.608 973.141H187.392c-75.435 0-136.533-61.098-136.533-136.533V187.392c0-75.435 61.098-136.533 136.533-136.533h649.557c75.435 0 136.534 61.098 136.534 136.533v649.557c-0.342 75.094-61.44 136.192-136.875 136.192z"></path>
  <g fill="#FFFFFF">
    <rect x="244" y="242" width="26" height="36" fill="#FFFFFF" fill-opacity="1.00"/><rect x="274" y="242" width="26" height="36" fill="#FFFFFF" fill-opacity="1.00"/><rect x="304" y="242" width="26" height="36" fill="#FFFFFF" fill-opacity="1.00"/><rect x="334" y="242" width="26" height="36" fill="#FFFFFF" fill-opacity="1.00"/><rect x="364" y="242" width="26" height="36" fill="#FFFFFF" fill-opacity="1.00"/><rect x="394" y="242" width="26" height="36" fill="#FFFFFF" fill-opacity="1.00"/><rect x="424" y="242" width="26" height="36" fill="#FFFFFF" fill-opacity="1.00"/><rect x="454" y="242" width="26" height="36" fill="#FFFFFF" fill-opacity="1.00"/><rect x="484" y="242" width="26" height="36" fill="#FFFFFF" fill-opacity="1.00"/><rect x="514" y="242" width="26" height="36" fill="#FFFFFF" fill-opacity="1.00"/><rect x="544" y="242" width="26" height="36" fill="#FFFFFF" fill-opacity="1.00"/><rect x="604" y="242" width="26" height="36" fill="#FFFFFF" fill-opacity="1.00"/><rect x="634" y="242" width="26" height="36" fill="#FFFFFF" fill-opacity="1.00"/><rect x="664" y="242" width="26" height="36" fill="#FFFFFF" fill-opacity="1.00"/><rect x="694" y="242" width="26" height="36" fill="#FFFFFF" fill-opacity="1.00"/><rect x="724" y="242" width="26" height="36" fill="#FFFFFF" fill-opacity="1.00"/><rect x="754" y="242" width="26" height="36" fill="#FFFFFF" fill-opacity="1.00"/>
    <rect x="244" y="284" width="26" height="36" fill="#FFFFFF" fill-opacity="0.96"/><rect x="274" y="284" width="26" height="36" fill="#FFFFFF" fill-opacity="0.96"/><rect x="304" y="284" width="26" height="36" fill="#FFFFFF" fill-opacity="0.96"/><rect x="334" y="284" width="26" height="36" fill="#FFFFFF" fill-opacity="0.96"/><rect x="364" y="284" width="26" height="36" fill="#FFFFFF" fill-opacity="0.96"/><rect x="394" y="284" width="26" height="36" fill="#FFFFFF" fill-opacity="0.96"/><rect x="424" y="284" width="26" height="36" fill="#FFFFFF" fill-opacity="0.96"/><rect x="454" y="284" width="26" height="36" fill="#FFFFFF" fill-opacity="0.96"/><rect x="484" y="284" width="26" height="36" fill="#FFFFFF" fill-opacity="0.96"/><rect x="514" y="284" width="26" height="36" fill="#FFFFFF" fill-opacity="0.96"/><rect x="574" y="284" width="26" height="36" fill="#FFFFFF" fill-opacity="0.96"/><rect x="604" y="284" width="26" height="36" fill="#FFFFFF" fill-opacity="0.96"/><rect x="634" y="284" width="26" height="36" fill="#FFFFFF" fill-opacity="0.96"/><rect x="664" y="284" width="26" height="36" fill="#FFFFFF" fill-opacity="0.96"/><rect x="694" y="284" width="26" height="36" fill="#FFFFFF" fill-opacity="0.96"/><rect x="724" y="284" width="26" height="36" fill="#FFFFFF" fill-opacity="0.96"/>
    <rect x="544" y="326" width="26" height="36" fill="#FFFFFF" fill-opacity="0.92"/><rect x="574" y="326" width="26" height="36" fill="#FFFFFF" fill-opacity="0.92"/><rect x="604" y="326" width="26" height="36" fill="#FFFFFF" fill-opacity="0.92"/><rect x="634" y="326" width="26" height="36" fill="#FFFFFF" fill-opacity="0.92"/><rect x="664" y="326" width="26" height="36" fill="#FFFFFF" fill-opacity="0.92"/><rect x="694" y="326" width="26" height="36" fill="#FFFFFF" fill-opacity="0.92"/>
    <rect x="514" y="368" width="26" height="36" fill="#FFFFFF" fill-opacity="0.88"/><rect x="544" y="368" width="26" height="36" fill="#FFFFFF" fill-opacity="0.88"/><rect x="574" y="368" width="26" height="36" fill="#FFFFFF" fill-opacity="0.88"/><rect x="604" y="368" width="26" height="36" fill="#FFFFFF" fill-opacity="0.88"/><rect x="634" y="368" width="26" height="36" fill="#FFFFFF" fill-opacity="0.88"/><rect x="664" y="368" width="26" height="36" fill="#FFFFFF" fill-opacity="0.88"/>
    <rect x="484" y="410" width="26" height="36" fill="#FFFFFF" fill-opacity="0.83"/><rect x="514" y="410" width="26" height="36" fill="#FFFFFF" fill-opacity="0.83"/><rect x="544" y="410" width="26" height="36" fill="#FFFFFF" fill-opacity="0.83"/><rect x="574" y="410" width="26" height="36" fill="#FFFFFF" fill-opacity="0.83"/><rect x="604" y="410" width="26" height="36" fill="#FFFFFF" fill-opacity="0.83"/><rect x="634" y="410" width="26" height="36" fill="#FFFFFF" fill-opacity="0.83"/>
    <rect x="454" y="452" width="26" height="36" fill="#FFFFFF" fill-opacity="0.79"/><rect x="484" y="452" width="26" height="36" fill="#FFFFFF" fill-opacity="0.79"/><rect x="514" y="452" width="26" height="36" fill="#FFFFFF" fill-opacity="0.79"/><rect x="544" y="452" width="26" height="36" fill="#FFFFFF" fill-opacity="0.79"/><rect x="574" y="452" width="26" height="36" fill="#FFFFFF" fill-opacity="0.79"/><rect x="604" y="452" width="26" height="36" fill="#FFFFFF" fill-opacity="0.79"/>
    <rect x="424" y="494" width="26" height="36" fill="#FFFFFF" fill-opacity="0.75"/><rect x="454" y="494" width="26" height="36" fill="#FFFFFF" fill-opacity="0.75"/><rect x="484" y="494" width="26" height="36" fill="#FFFFFF" fill-opacity="0.75"/><rect x="514" y="494" width="26" height="36" fill="#FFFFFF" fill-opacity="0.75"/><rect x="544" y="494" width="26" height="36" fill="#FFFFFF" fill-opacity="0.75"/><rect x="574" y="494" width="26" height="36" fill="#FFFFFF" fill-opacity="0.75"/>
    <rect x="394" y="536" width="26" height="36" fill="#FFFFFF" fill-opacity="0.71"/><rect x="424" y="536" width="26" height="36" fill="#FFFFFF" fill-opacity="0.71"/><rect x="454" y="536" width="26" height="36" fill="#FFFFFF" fill-opacity="0.71"/><rect x="484" y="536" width="26" height="36" fill="#FFFFFF" fill-opacity="0.71"/><rect x="514" y="536" width="26" height="36" fill="#FFFFFF" fill-opacity="0.71"/><rect x="544" y="536" width="26" height="36" fill="#FFFFFF" fill-opacity="0.71"/>
    <rect x="364" y="578" width="26" height="36" fill="#FFFFFF" fill-opacity="0.67"/><rect x="394" y="578" width="26" height="36" fill="#FFFFFF" fill-opacity="0.67"/><rect x="424" y="578" width="26" height="36" fill="#FFFFFF" fill-opacity="0.67"/><rect x="454" y="578" width="26" height="36" fill="#FFFFFF" fill-opacity="0.67"/><rect x="484" y="578" width="26" height="36" fill="#FFFFFF" fill-opacity="0.67"/><rect x="514" y="578" width="26" height="36" fill="#FFFFFF" fill-opacity="0.67"/>
    <rect x="334" y="620" width="26" height="36" fill="#FFFFFF" fill-opacity="0.63"/><rect x="364" y="620" width="26" height="36" fill="#FFFFFF" fill-opacity="0.63"/><rect x="394" y="620" width="26" height="36" fill="#FFFFFF" fill-opacity="0.63"/><rect x="424" y="620" width="26" height="36" fill="#FFFFFF" fill-opacity="0.63"/><rect x="454" y="620" width="26" height="36" fill="#FFFFFF" fill-opacity="0.63"/><rect x="484" y="620" width="26" height="36" fill="#FFFFFF" fill-opacity="0.63"/>
    <rect x="304" y="662" width="26" height="36" fill="#FFFFFF" fill-opacity="0.58"/><rect x="334" y="662" width="26" height="36" fill="#FFFFFF" fill-opacity="0.58"/><rect x="364" y="662" width="26" height="36" fill="#FFFFFF" fill-opacity="0.58"/><rect x="394" y="662" width="26" height="36" fill="#FFFFFF" fill-opacity="0.58"/><rect x="424" y="662" width="26" height="36" fill="#FFFFFF" fill-opacity="0.58"/><rect x="454" y="662" width="26" height="36" fill="#FFFFFF" fill-opacity="0.58"/>
    <rect x="274" y="704" width="26" height="36" fill="#FFFFFF" fill-opacity="0.54"/><rect x="304" y="704" width="26" height="36" fill="#FFFFFF" fill-opacity="0.54"/><rect x="334" y="704" width="26" height="36" fill="#FFFFFF" fill-opacity="0.54"/><rect x="364" y="704" width="26" height="36" fill="#FFFFFF" fill-opacity="0.54"/><rect x="394" y="704" width="26" height="36" fill="#FFFFFF" fill-opacity="0.54"/><rect x="424" y="704" width="26" height="36" fill="#FFFFFF" fill-opacity="0.54"/><rect x="484" y="704" width="26" height="36" fill="#FFFFFF" fill-opacity="0.54"/><rect x="514" y="704" width="26" height="36" fill="#FFFFFF" fill-opacity="0.54"/><rect x="544" y="704" width="26" height="36" fill="#FFFFFF" fill-opacity="0.54"/><rect x="574" y="704" width="26" height="36" fill="#FFFFFF" fill-opacity="0.54"/><rect x="604" y="704" width="26" height="36" fill="#FFFFFF" fill-opacity="0.54"/><rect x="634" y="704" width="26" height="36" fill="#FFFFFF" fill-opacity="0.54"/><rect x="664" y="704" width="26" height="36" fill="#FFFFFF" fill-opacity="0.54"/><rect x="694" y="704" width="26" height="36" fill="#FFFFFF" fill-opacity="0.54"/><rect x="724" y="704" width="26" height="36" fill="#FFFFFF" fill-opacity="0.54"/><rect x="754" y="704" width="26" height="36" fill="#FFFFFF" fill-opacity="0.54"/>
    <rect x="244" y="746" width="26" height="36" fill="#FFFFFF" fill-opacity="0.50"/><rect x="274" y="746" width="26" height="36" fill="#FFFFFF" fill-opacity="0.50"/><rect x="304" y="746" width="26" height="36" fill="#FFFFFF" fill-opacity="0.50"/><rect x="334" y="746" width="26" height="36" fill="#FFFFFF" fill-opacity="0.50"/><rect x="364" y="746" width="26" height="36" fill="#FFFFFF" fill-opacity="0.50"/><rect x="394" y="746" width="26" height="36" fill="#FFFFFF" fill-opacity="0.50"/><rect x="454" y="746" width="26" height="36" fill="#FFFFFF" fill-opacity="0.50"/><rect x="484" y="746" width="26" height="36" fill="#FFFFFF" fill-opacity="0.50"/><rect x="514" y="746" width="26" height="36" fill="#FFFFFF" fill-opacity="0.50"/><rect x="544" y="746" width="26" height="36" fill="#FFFFFF" fill-opacity="0.50"/><rect x="574" y="746" width="26" height="36" fill="#FFFFFF" fill-opacity="0.50"/><rect x="604" y="746" width="26" height="36" fill="#FFFFFF" fill-opacity="0.50"/><rect x="634" y="746" width="26" height="36" fill="#FFFFFF" fill-opacity="0.50"/><rect x="664" y="746" width="26" height="36" fill="#FFFFFF" fill-opacity="0.50"/><rect x="694" y="746" width="26" height="36" fill="#FFFFFF" fill-opacity="0.50"/><rect x="724" y="746" width="26" height="36" fill="#FFFFFF" fill-opacity="0.50"/><rect x="754" y="746" width="26" height="36" fill="#FFFFFF" fill-opacity="0.50"/>
  </g>
  <!-- 窗口控制圆点：对齐 c3/c4/c5 块中心 -->
  <g fill="#262A55"><circle cx="347" cy="260" r="10"/><circle cx="377" cy="260" r="10"/><circle cx="407" cy="260" r="10"/></g>
  <!-- GUI 光标：尖端落在下杠顶边(y=704) -->
  <path d="M690 704 L782 484 L814 580 L885 612 Z" fill="#FFFFFF" stroke="#262A55" stroke-width="13" stroke-linejoin="round"></path>
</svg>
